<svg width="256.285400" height="39.268311" viewBox="0 0 256.285 39.2683" fill="none" xmlns="http://www.w3.org/2000/svg" xmlns:xlink="http://www.w3.org/1999/xlink">
	<desc>
			Created with Pixso.
	</desc>
	<defs/>
	<path d="M74.7571 32.2773L66.2034 9.83301L73.368 9.83301L77.8276 22.2615L81.9217 9.83301L87.3683 9.83301L91.6817 22.3347L96.1048 9.83301L103.16 9.83301L94.7157 32.2773L88.8305 32.2773L84.6633 20.2146L80.6423 32.2773L74.7571 32.2773ZM116.356 32.8257C109.447 32.8257 104.695 28.6221 104.695 21.0918C104.695 14.2927 109.557 9.39453 116.173 9.39453C122.643 9.39453 127.212 13.6714 127.212 21.6768L127.214 21.8711C127.216 21.9846 127.219 22.0876 127.221 22.1863C127.225 22.3188 127.229 22.4429 127.229 22.573C127.229 22.7124 127.225 22.8586 127.212 23.0291L111.421 23.0291C112.006 25.6975 114.126 26.9771 116.685 26.9771C118.787 26.9771 120.207 25.5796 121.343 24.1331L121.547 23.8699C121.547 23.8699 124.861 25.781 126.416 26.7156L126.847 26.9771C124.873 30.4863 121.071 32.8257 116.356 32.8257ZM116.1 15.0969C118.22 15.0969 119.39 16.1204 120.194 18.2771L111.677 18.2771C112.518 16.1936 113.797 15.0969 116.1 15.0969ZM130.868 32.2773L130.868 4.27686L137.63 4.27686L137.63 11.9531C137.63 11.9531 140.628 9.39453 144.539 9.39453C151.155 9.39453 155.067 14.9873 155.067 21.0918C155.067 27.3425 151.082 32.8257 144.758 32.8257C141.798 32.8257 139.604 31.9849 137.521 29.938L137.521 32.2773L130.868 32.2773ZM143.004 15.6819C146.074 15.6819 148.304 18.0942 148.304 20.9456C148.304 24.1257 146.623 26.7942 143.296 26.7942C139.751 26.7942 137.448 24.5645 137.448 21.0918C137.448 17.8384 139.824 15.6819 143.004 15.6819ZM157.626 21.1648C157.626 14.439 162.999 9.39453 169.908 9.39453C176.707 9.39453 182.007 14.2927 182.007 21.0552C182.007 27.8909 177.072 33.0449 169.762 33.0449C162.889 33.0449 157.626 27.4158 157.626 21.1648ZM169.871 15.7915C173.051 15.7915 175.245 18.0579 175.245 20.9456C175.245 24.4548 173.198 26.6116 169.835 26.6116C166.728 26.6116 164.425 24.272 164.425 21.2747C164.425 18.2041 166.581 15.7915 169.871 15.7915ZM193.01 32.2773L183.616 9.83301L191.219 9.83301L196.117 22.9561L200.723 9.83301L207.888 9.83301L199.078 32.2773L193.01 32.2773ZM217.392 32.2773L210.593 32.2773L210.593 9.83301L217.392 9.83301L217.392 32.2773ZM209.935 4.13062C209.935 1.86426 211.762 0 214.029 0C216.295 0 218.159 1.79126 218.159 4.05762C218.159 6.36035 216.295 8.22461 213.956 8.22461C211.726 8.22461 209.935 6.43359 209.935 4.13062ZM221.047 21.1648C221.047 14.439 226.421 9.39453 233.329 9.39453C240.128 9.39453 245.429 14.2927 245.429 21.0552C245.429 27.8909 240.494 33.0449 233.183 33.0449C226.311 33.0449 221.047 27.4158 221.047 21.1648ZM233.293 15.7915C236.473 15.7915 238.666 18.0579 238.666 20.9456C238.666 24.4548 236.619 26.6116 233.256 26.6116C230.149 26.6116 227.846 24.272 227.846 21.2747C227.846 18.2041 230.003 15.7915 233.293 15.7915Z" clip-rule="evenodd" fill="#FFFFFF" fill-opacity="1.000000" fill-rule="evenodd"/>
	<path d="M252.082 24.1816C254.385 24.1816 256.285 26.0825 256.285 28.3855C256.285 30.6882 254.385 32.5891 252.082 32.5891C249.779 32.5891 247.878 30.6882 247.878 28.3855C247.878 26.0825 249.779 24.1816 252.082 24.1816Z" fill="#FFFFFF" fill-opacity="1.000000" fill-rule="nonzero"/>
	<path d="M36.6502 34.4841C35.35 36.6511 32.2094 36.6511 30.9092 34.4841L12.7815 4.27124L48.8656 4.27124C51.4676 4.27124 53.0748 7.10986 51.7361 9.34106L36.6502 34.4841Z" fill="#FFD723" fill-opacity="1.000000" fill-rule="evenodd"/>
	<path d="M23.8687 34.4841L41.9965 4.27124L5.91241 4.27124C3.31036 4.27124 1.70319 7.10986 3.04193 9.34106L18.1277 34.4841C19.4279 36.6511 22.5685 36.6511 23.8687 34.4841Z" fill="#FFFFFF" fill-opacity="1.000000" fill-rule="evenodd"/>
	<path d="M12.7815 4.27124L41.9964 4.27124L27.39 28.6169L12.7815 4.27124Z" fill="#F6F6F6" fill-opacity="1.000000" fill-rule="evenodd"/>
</svg>
